<svg width="838" height="1804" viewBox="0 0 838 1804" class="keymap" xmlns="http://www.w3.org/2000/svg" xmlns:xlink="http://www.w3.org/1999/xlink">
<style>/* inherit to force styles through use tags */
svg path {
    fill: inherit;
}

/* font and background color specifications */
svg.keymap {
    font-family: SFMono-Regular,Consolas,Liberation Mono,Menlo,monospace;
    font-size: 14px;
    font-kerning: normal;
    text-rendering: optimizeLegibility;
    fill: #24292e;
}

/* default key styling */
rect.key {
    fill: #f6f8fa;
}

rect.key, rect.combo {
    stroke: #c9cccf;
    stroke-width: 1;
}

/* default key side styling, only used is draw_key_sides is set */
rect.side {
    filter: brightness(90%);
}

/* color accent for combo boxes */
rect.combo, rect.combo-separate {
    fill: #cdf;
}

/* color accent for held keys */
rect.held, rect.combo.held {
    fill: #fdd;
}

/* color accent for ghost (optional) keys */
rect.ghost, rect.combo.ghost {
    stroke-dasharray: 4, 4;
    stroke-width: 2;
}

text {
    text-anchor: middle;
    dominant-baseline: middle;
}

/* styling for layer labels */
text.label {
    font-weight: bold;
    text-anchor: start;
    stroke: white;
    stroke-width: 4;
    paint-order: stroke;
}

/* styling for optional footer */
text.footer {
    text-anchor: end;
    dominant-baseline: auto;
    stroke: white;
    stroke-width: 4;
    paint-order: stroke;
}

/* styling for combo tap, and key non-tap label text */
text.combo, text.hold, text.shifted, text.left, text.right {
    font-size: 11px;
}

text.hold {
    text-anchor: middle;
    dominant-baseline: auto;
}

text.shifted {
    text-anchor: middle;
    dominant-baseline: hanging;
}

text.left {
    text-anchor: start;
}

text.right {
    text-anchor: end;
}

text.layer-activator {
    text-decoration: underline;
}

/* styling for hold/shifted label text in combo box */
text.combo.hold, text.combo.shifted, text.combo.left, text.combo.right {
    font-size: 8px;
}

/* lighter symbol for transparent keys */
text.trans {
    fill: #7b7e81;
}

/* styling for combo dendrons */
path.combo {
    stroke-width: 1;
    stroke: gray;
    fill: none;
}

/* Start Tabler Icons Cleanup */
/* cannot use height/width with glyphs */
.icon-tabler > path {
    fill: inherit;
    stroke: inherit;
    stroke-width: 2;
}
/* hide tabler's default box */
.icon-tabler > path[stroke="none"][fill="none"] {
    visibility: hidden;
}
/* End Tabler Icons Cleanup */

rect.key, rect.combo { fill: #5e5d5f; stroke: none; }
rect.combo { fill: #363537 }
rect.combo text { fill: #ffffff }
svg.keymap { background-color: #363537; }
.layer-zero text, .layer-zero use, .layer-zero rect.held { fill: #c4ffb2; }
.layer-one text, .layer-one use, .layer-one rect.held { fill: #caa8f5; }
.layer-two text, .layer-two use, .layer-two rect.held { fill: #4dc2b6; }
.layer-three text, .layer-three use, .layer-three rect.held { fill: #a6e3a1; }
.layer-four text, .layer-four use, .layer-four rect.held { fill: #f79824; }
.layer-six text, .layer-six use, .layer-six rect.held { fill: #f25778; }
text.held { fill: #363537; }
rect.mod { fill: #181825; }
text.label { visibility: hidden; }
rect:has(~ a[href="#one"]) { stroke: #caa8f5; stroke-width: 3 }
rect:has(~ a[href="#two"]) { stroke: #4dc2b6; stroke-width: 3 }
a { visibility: hidden; } {t: a, type: held}
</style>
<g transform="translate(30, 0)" class="layer-zero">
<text x="0" y="28" class="label" id="zero">zero:</text>
<g transform="translate(0, 121)">
<g transform="translate(84, 45) rotate(-3.0)" class="key keypos-0">
<rect rx="6" ry="6" x="-26" y="-26" width="51" height="51" class="key"/>
<text x="0" y="0" class="key tap">y</text>
</g>
<g transform="translate(147, 28)" class="key keypos-1">
<rect rx="6" ry="6" x="-26" y="-26" width="51" height="51" class="key"/>
<text x="0" y="0" class="key tap">o</text>
</g>
<g transform="translate(203, 41)" class="key keypos-2">
<rect rx="6" ry="6" x="-26" y="-26" width="51" height="51" class="key"/>
<text x="0" y="0" class="key tap">u</text>
</g>
<g transform="translate(259, 70)" class="key keypos-3">
<rect rx="6" ry="6" x="-26" y="-26" width="51" height="51" class="key"/>
<text x="0" y="0" class="key tap">q</text>
</g>
<g transform="translate(518, 70)" class="key keypos-4">
<rect rx="6" ry="6" x="-26" y="-26" width="51" height="51" class="key"/>
<text x="0" y="0" class="key tap">p</text>
</g>
<g transform="translate(574, 41)" class="key keypos-5">
<rect rx="6" ry="6" x="-26" y="-26" width="51" height="51" class="key"/>
<text x="0" y="0" class="key tap">d</text>
</g>
<g transform="translate(631, 28)" class="key keypos-6">
<rect rx="6" ry="6" x="-26" y="-26" width="51" height="51" class="key"/>
<text x="0" y="0" class="key tap">l</text>
</g>
<g transform="translate(694, 45) rotate(3.0)" class="key keypos-7">
<rect rx="6" ry="6" x="-26" y="-26" width="51" height="51" class="key"/>
<text x="0" y="0" class="key tap">f</text>
</g>
<g transform="translate(31, 164) rotate(-8.0)" class="key keypos-8">
<rect rx="6" ry="6" x="-26" y="-26" width="51" height="51" class="key"/>
<text x="0" y="0" class="key tap">c</text>
</g>
<g transform="translate(87, 101) rotate(-3.0)" class="key keypos-9">
<rect rx="6" ry="6" x="-26" y="-26" width="51" height="51" class="key"/>
<text x="0" y="0" class="key tap">i</text>
</g>
<g transform="translate(147, 84)" class="key held keypos-10">
<rect rx="6" ry="6" x="-26" y="-26" width="51" height="51" class="key held"/>
<text x="0" y="0" class="key held tap">a</text>
</g>
<g transform="translate(203, 98)" class="key held keypos-11">
<rect rx="6" ry="6" x="-26" y="-26" width="51" height="51" class="key held"/>
<text x="0" y="0" class="key held tap">e</text>
</g>
<g transform="translate(259, 126)" class="key keypos-12">
<rect rx="6" ry="6" x="-26" y="-26" width="51" height="51" class="key"/>
<text x="0" y="0" class="key tap">z</text>
</g>
<g transform="translate(518, 126)" class="key keypos-13">
<rect rx="6" ry="6" x="-26" y="-26" width="51" height="51" class="key"/>
<text x="0" y="0" class="key tap">k</text>
</g>
<g transform="translate(574, 98)" class="key held keypos-14">
<rect rx="6" ry="6" x="-26" y="-26" width="51" height="51" class="key held"/>
<text x="0" y="0" class="key held tap">t</text>
</g>
<g transform="translate(631, 84)" class="key held keypos-15">
<rect rx="6" ry="6" x="-26" y="-26" width="51" height="51" class="key held"/>
<text x="0" y="0" class="key held tap">h</text>
</g>
<g transform="translate(691, 101) rotate(3.0)" class="key keypos-16">
<rect rx="6" ry="6" x="-26" y="-26" width="51" height="51" class="key"/>
<text x="0" y="0" class="key tap">s</text>
</g>
<g transform="translate(747, 164) rotate(8.0)" class="key keypos-17">
<rect rx="6" ry="6" x="-26" y="-26" width="51" height="51" class="key"/>
<text x="0" y="0" class="key tap">n</text>
</g>
<g transform="translate(89, 158) rotate(-3.0)" class="key keypos-18">
<rect rx="6" ry="6" x="-26" y="-26" width="51" height="51" class="key"/>
<text x="0" y="0" class="key tap">j</text>
</g>
<g transform="translate(147, 140)" class="key keypos-19">
<rect rx="6" ry="6" x="-26" y="-26" width="51" height="51" class="key"/>
<text x="0" y="0" class="key tap">x</text>
</g>
<g transform="translate(203, 155)" class="key keypos-20">
<rect rx="6" ry="6" x="-26" y="-26" width="51" height="51" class="key"/>
<text x="0" y="0" class="key tap">mgc</text>
</g>
<g transform="translate(574, 155)" class="key keypos-21">
<rect rx="6" ry="6" x="-26" y="-26" width="51" height="51" class="key"/>
<text x="0" y="0" class="key tap">w</text>
</g>
<g transform="translate(631, 140)" class="key keypos-22">
<rect rx="6" ry="6" x="-26" y="-26" width="51" height="51" class="key"/>
<text x="0" y="0" class="key tap">m</text>
</g>
<g transform="translate(688, 158) rotate(3.0)" class="key keypos-23">
<rect rx="6" ry="6" x="-26" y="-26" width="51" height="51" class="key"/>
<text x="0" y="0" class="key tap">g</text>
</g>
<g transform="translate(323, 220) rotate(20.0)" class="key keypos-24">
<rect rx="6" ry="6" x="-39" y="-26" width="78" height="51" class="key"/>
<text x="0" y="0" class="key tap">spc</text>
<a href="#two">
<text x="0" y="-24" class="key shifted layer-activator">two</text>
</a></g>
<g transform="translate(453, 222) rotate(-20.0)" class="key keypos-25">
<rect rx="6" ry="6" x="-39" y="-26" width="78" height="51" class="key"/>
<text x="0" y="0" class="key tap">r</text>
<a href="#one">
<text x="0" y="-24" class="key shifted layer-activator">one</text>
</a></g>
<g class="combo combopos-0">
<rect rx="6" ry="6" x="677" y="117" width="25" height="25" class="combo"/>
<text x="690" y="130" class="combo tap">v</text>
</g>
<g class="combo combopos-1">
<rect rx="6" ry="6" x="562" y="114" width="25" height="25" class="combo"/>
<text x="574" y="126" class="combo tap">b</text>
</g>
<g class="combo combopos-2">
<rect rx="6" ry="6" x="73" y="60" width="25" height="25" class="combo"/>
<text x="85" y="73" class="combo tap">ctl</text>
</g>
<g class="combo combopos-3">
<rect rx="6" ry="6" x="134" y="43" width="25" height="25" class="combo"/>
<text x="147" y="56" class="combo tap">gui</text>
</g>
<g class="combo combopos-4">
<rect rx="6" ry="6" x="191" y="57" width="25" height="25" class="combo"/>
<text x="203" y="70" class="combo tap">sft</text>
</g>
<g class="combo combopos-5">
<rect rx="6" ry="6" x="247" y="86" width="25" height="25" class="combo"/>
<text x="259" y="98" class="combo tap">alt</text>
</g>
<g class="combo combopos-6">
<rect rx="6" ry="6" x="506" y="86" width="25" height="25" class="combo"/>
<text x="518" y="98" class="combo tap">alt</text>
</g>
<g class="combo combopos-7">
<rect rx="6" ry="6" x="562" y="57" width="25" height="25" class="combo"/>
<text x="574" y="70" class="combo tap">sft</text>
</g>
<g class="combo combopos-8">
<rect rx="6" ry="6" x="619" y="43" width="25" height="25" class="combo"/>
<text x="631" y="56" class="combo tap">gui</text>
</g>
<g class="combo combopos-9">
<rect rx="6" ry="6" x="680" y="60" width="25" height="25" class="combo"/>
<text x="692" y="73" class="combo tap">ctl</text>
</g>
<g class="combo combopos-10">
<rect rx="6" ry="6" x="162" y="78" width="25" height="25" class="combo"/>
<text x="175" y="91" class="combo tap">del</text>
</g>
<g class="combo combopos-11">
<path d="M114,-34 h-24 a6.0,6.0 0 0 0 -6.0,6.0 v54" class="combo"/>
<path d="M114,-34 h84 a6.0,6.0 0 0 1 6.0,6.0 v51" class="combo"/>
<rect rx="6" ry="6" x="101" y="-46" width="25" height="25" class="combo"/>
<text x="114" y="-34" class="combo tap">tab</text>
</g>
<g class="combo combopos-12">
<path d="M173,-15 h-84 a6.0,6.0 0 0 0 -6.0,6.0 v35" class="combo"/>
<path d="M173,-15 h-21 a6.0,6.0 0 0 0 -6.0,6.0 v18" class="combo"/>
<path d="M173,-15 h24 a6.0,6.0 0 0 1 6.0,6.0 v32" class="combo"/>
<rect rx="6" ry="6" x="161" y="-27" width="25" height="25" class="combo"/>
<text x="173" y="-15" class="combo tap">esc</text>
</g>
<g class="combo combopos-13">
<rect rx="6" ry="6" x="104" y="80" width="25" height="25" class="combo"/>
<text x="117" y="92" class="combo tap">ent</text>
</g>
<g class="combo combopos-14">
<rect rx="6" ry="6" x="590" y="78" width="25" height="25" class="combo"/>
<text x="603" y="91" class="combo tap">bck</text>
</g>
<g class="combo combopos-15">
<path d="M664,-34 h-84 a6.0,6.0 0 0 0 -6.0,6.0 v51" class="combo"/>
<path d="M664,-34 h24 a6.0,6.0 0 0 1 6.0,6.0 v54" class="combo"/>
<rect rx="6" ry="6" x="651" y="-46" width="25" height="25" class="combo"/>
<text x="664" y="-34" class="combo tap">tab</text>
</g>
<g class="combo combopos-16">
<path d="M604,-15 h-24 a6.0,6.0 0 0 0 -6.0,6.0 v32" class="combo"/>
<path d="M604,-15 h21 a6.0,6.0 0 0 1 6.0,6.0 v18" class="combo"/>
<path d="M604,-15 h84 a6.0,6.0 0 0 1 6.0,6.0 v35" class="combo"/>
<rect rx="6" ry="6" x="592" y="-27" width="25" height="25" class="combo"/>
<text x="604" y="-15" class="combo tap">esc</text>
</g>
<g class="combo combopos-17">
<rect rx="6" ry="6" x="649" y="80" width="25" height="25" class="combo"/>
<text x="661" y="92" class="combo tap">ent</text>
</g>
<g class="combo combopos-18">
<path d="M204,-53 h-114 a6.0,6.0 0 0 0 -6.0,6.0 v73" class="combo"/>
<path d="M204,-53 h114 a6.0,6.0 0 0 1 6.0,6.0 v249" class="combo"/>
<rect rx="6" ry="6" x="191" y="-65" width="25" height="25" class="combo"/>
<text x="204" y="-53" class="combo tap">
<tspan x="204" dy="-0.6em">num</tspan><tspan x="204" dy="1.2em">wrd</tspan>
</text>
</g>
<g class="combo combopos-19">
<path d="M573,-53 h114 a6.0,6.0 0 0 1 6.0,6.0 v73" class="combo"/>
<path d="M573,-53 h-114 a6.0,6.0 0 0 0 -6.0,6.0 v250" class="combo"/>
<rect rx="6" ry="6" x="561" y="-65" width="25" height="25" class="combo"/>
<text x="573" y="-53" class="combo tap">
<tspan x="573" dy="-0.6em">cap</tspan><tspan x="573" dy="1.2em">wrd</tspan>
</text>
</g>
</g>
</g>
<g transform="translate(30, 383)" class="layer-one">
<text x="0" y="28" class="label" id="one">one:</text>
<g transform="translate(0, 56)">
<g transform="translate(84, 45) rotate(-3.0)" class="key keypos-0">
<rect rx="6" ry="6" x="-26" y="-26" width="51" height="51" class="key"/>
<text x="0" y="0" class="key tap">%</text>
<text x="0" y="-24" class="key shifted">#</text>
</g>
<g transform="translate(147, 28)" class="key keypos-1">
<rect rx="6" ry="6" x="-26" y="-26" width="51" height="51" class="key"/>
<text x="0" y="0" class="key tap">@</text>
<text x="0" y="-24" class="key shifted">^</text>
</g>
<g transform="translate(203, 41)" class="key keypos-2">
<rect rx="6" ry="6" x="-26" y="-26" width="51" height="51" class="key"/>
<text x="0" y="0" class="key tap">-</text>
<text x="0" y="-24" class="key shifted">+</text>
</g>
<g transform="translate(259, 70)" class="key keypos-3">
<rect rx="6" ry="6" x="-26" y="-26" width="51" height="51" class="key"/>
<text x="0" y="0" class="key tap">`</text>
<text x="0" y="-24" class="key shifted">|</text>
</g>
<g transform="translate(518, 70)" class="key keypos-4">
<rect rx="6" ry="6" x="-26" y="-26" width="51" height="51" class="key"/>
<text x="0" y="0" class="key tap">/</text>
<text x="0" y="-24" class="key shifted">\</text>
</g>
<g transform="translate(574, 41)" class="key keypos-5">
<rect rx="6" ry="6" x="-26" y="-26" width="51" height="51" class="key"/>
<text x="0" y="0" class="key tap">(</text>
<text x="0" y="-24" class="key shifted">)</text>
</g>
<g transform="translate(631, 28)" class="key keypos-6">
<rect rx="6" ry="6" x="-26" y="-26" width="51" height="51" class="key"/>
<text x="0" y="0" class="key tap">{</text>
<text x="0" y="-24" class="key shifted">}</text>
</g>
<g transform="translate(694, 45) rotate(3.0)" class="key keypos-7">
<rect rx="6" ry="6" x="-26" y="-26" width="51" height="51" class="key"/>
<text x="0" y="0" class="key tap">[</text>
<text x="0" y="-24" class="key shifted">]</text>
</g>
<g transform="translate(31, 164) rotate(-8.0)" class="key keypos-8">
<rect rx="6" ry="6" x="-26" y="-26" width="51" height="51" class="key"/>
<text x="0" y="0" class="key tap">4</text>
<text x="0" y="-24" class="key shifted">_</text>
</g>
<g transform="translate(87, 101) rotate(-3.0)" class="key keypos-9">
<rect rx="6" ry="6" x="-26" y="-26" width="51" height="51" class="key"/>
<text x="0" y="0" class="key tap">3</text>
<text x="0" y="-24" class="key shifted">&amp;</text>
</g>
<g transform="translate(147, 84)" class="key keypos-10">
<rect rx="6" ry="6" x="-26" y="-26" width="51" height="51" class="key"/>
<text x="0" y="0" class="key tap">2</text>
<text x="0" y="-24" class="key shifted">=</text>
</g>
<g transform="translate(203, 98)" class="key keypos-11">
<rect rx="6" ry="6" x="-26" y="-26" width="51" height="51" class="key"/>
<text x="0" y="0" class="key tap">1</text>
<text x="0" y="-24" class="key shifted">;</text>
</g>
<g transform="translate(259, 126)" class="key keypos-12">
<rect rx="6" ry="6" x="-26" y="-26" width="51" height="51" class="key"/>
<text x="0" y="0" class="key tap">spc</text>
<text x="0" y="-24" class="key shifted">~</text>
</g>
<g transform="translate(518, 126)" class="key keypos-13">
<rect rx="6" ry="6" x="-26" y="-26" width="51" height="51" class="key"/>
<text x="0" y="0" class="key tap">9</text>
<text x="0" y="-24" class="key shifted">$</text>
</g>
<g transform="translate(574, 98)" class="key keypos-14">
<rect rx="6" ry="6" x="-26" y="-26" width="51" height="51" class="key"/>
<text x="0" y="0" class="key tap">5</text>
<text x="0" y="-24" class="key shifted">:</text>
</g>
<g transform="translate(631, 84)" class="key keypos-15">
<rect rx="6" ry="6" x="-26" y="-26" width="51" height="51" class="key"/>
<text x="0" y="0" class="key tap">6</text>
<text x="0" y="-24" class="key shifted">*</text>
</g>
<g transform="translate(691, 101) rotate(3.0)" class="key keypos-16">
<rect rx="6" ry="6" x="-26" y="-26" width="51" height="51" class="key"/>
<text x="0" y="0" class="key tap">7</text>
<text x="0" y="-24" class="key shifted">!</text>
</g>
<g transform="translate(747, 164) rotate(8.0)" class="key keypos-17">
<rect rx="6" ry="6" x="-26" y="-26" width="51" height="51" class="key"/>
<text x="0" y="0" class="key tap">8</text>
<text x="0" y="-24" class="key shifted">?</text>
</g>
<g transform="translate(89, 158) rotate(-3.0)" class="key keypos-18">
<rect rx="6" ry="6" x="-26" y="-26" width="51" height="51" class="key"/>
<text x="0" y="0" class="key tap">&lt;</text>
</g>
<g transform="translate(147, 140)" class="key keypos-19">
<rect rx="6" ry="6" x="-26" y="-26" width="51" height="51" class="key"/>
<text x="0" y="0" class="key tap">&quot;</text>
<text x="0" y="-24" class="key shifted">&quot;&quot;</text>
</g>
<g transform="translate(203, 155)" class="key keypos-20">
<rect rx="6" ry="6" x="-26" y="-26" width="51" height="51" class="key"/>
<text x="0" y="0" class="key tap">,</text>
<text x="0" y="-24" class="key shifted">,_</text>
</g>
<g transform="translate(574, 155)" class="key keypos-21">
<rect rx="6" ry="6" x="-26" y="-26" width="51" height="51" class="key"/>
<text x="0" y="0" class="key tap">.</text>
<text x="0" y="-24" class="key shifted">._</text>
</g>
<g transform="translate(631, 140)" class="key keypos-22">
<rect rx="6" ry="6" x="-26" y="-26" width="51" height="51" class="key"/>
<text x="0" y="0" class="key tap">&#x27;</text>
<text x="0" y="-24" class="key shifted">&#x27;&#x27;</text>
</g>
<g transform="translate(688, 158) rotate(3.0)" class="key keypos-23">
<rect rx="6" ry="6" x="-26" y="-26" width="51" height="51" class="key"/>
<text x="0" y="0" class="key tap">&gt;</text>
</g>
<g transform="translate(323, 220) rotate(20.0)" class="key keypos-24">
<rect rx="6" ry="6" x="-39" y="-26" width="78" height="51" class="key"/>
<text x="0" y="0" class="key tap">0</text>
</g>
<g transform="translate(453, 222) rotate(-20.0)" class="key held keypos-25">
<rect rx="6" ry="6" x="-39" y="-26" width="78" height="51" class="key held"/>
</g>
</g>
</g>
<g transform="translate(30, 701)" class="layer-two">
<text x="0" y="28" class="label" id="two">two:</text>
<g transform="translate(0, 56)">
<g transform="translate(84, 45) rotate(-3.0)" class="key keypos-0">
<rect rx="6" ry="6" x="-26" y="-26" width="51" height="51" class="key"/>
<text x="0" y="0" class="key tap">
<tspan x="0" dy="-0.6em">mse</tspan><tspan x="0" dy="1.2em">3</tspan>
</text>
</g>
<g transform="translate(147, 28)" class="key keypos-1">
<rect rx="6" ry="6" x="-26" y="-26" width="51" height="51" class="key"/>
<text x="0" y="0" class="key tap">
<tspan x="0" dy="-0.6em">mse</tspan><tspan x="0" dy="1.2em">2</tspan>
</text>
</g>
<g transform="translate(203, 41)" class="key keypos-2">
<rect rx="6" ry="6" x="-26" y="-26" width="51" height="51" class="key"/>
<text x="0" y="0" class="key tap">
<tspan x="0" dy="-0.6em">mse</tspan><tspan x="0" dy="1.2em">1</tspan>
</text>
</g>
<g transform="translate(259, 70)" class="key keypos-3">
<rect rx="6" ry="6" x="-26" y="-26" width="51" height="51" class="key"/>
<text x="0" y="0" class="key tap">
<tspan x="0" dy="-0.6em">mse</tspan><tspan x="0" dy="1.2em">4</tspan>
</text>
</g>
<g transform="translate(518, 70)" class="key keypos-4">
<rect rx="6" ry="6" x="-26" y="-26" width="51" height="51" class="key"/>
<text x="0" y="0" class="key tap">ply</text>
</g>
<g transform="translate(574, 41)" class="key keypos-5">
<rect rx="6" ry="6" x="-26" y="-26" width="51" height="51" class="key"/>
<text x="0" y="0" class="key tap">prv</text>
</g>
<g transform="translate(631, 28)" class="key keypos-6">
<rect rx="6" ry="6" x="-26" y="-26" width="51" height="51" class="key"/>
<text x="0" y="0" class="key tap">nxt</text>
</g>
<g transform="translate(694, 45) rotate(3.0)" class="key keypos-7">
<rect rx="6" ry="6" x="-26" y="-26" width="51" height="51" class="key"/>
<text x="0" y="0" class="key tap">
<tspan x="0" dy="-0.6em">pg</tspan><tspan x="0" dy="1.2em">up</tspan>
</text>
</g>
<g transform="translate(31, 164) rotate(-8.0)" class="key keypos-8">
<rect rx="6" ry="6" x="-26" y="-26" width="51" height="51" class="key"/>
<text x="0" y="0" class="key tap">c+x</text>
<text x="0" y="-24" class="key shifted">c+t</text>
</g>
<g transform="translate(87, 101) rotate(-3.0)" class="key keypos-9">
<rect rx="6" ry="6" x="-26" y="-26" width="51" height="51" class="key"/>
<text x="0" y="0" class="key tap">
<tspan x="0" dy="-0.6em">mse</tspan><tspan x="0" dy="1.2em">lft</tspan>
</text>
</g>
<g transform="translate(147, 84)" class="key keypos-10">
<rect rx="6" ry="6" x="-26" y="-26" width="51" height="51" class="key"/>
<text x="0" y="0" class="key tap">
<tspan x="0" dy="-0.6em">mse</tspan><tspan x="0" dy="1.2em">up</tspan>
</text>
</g>
<g transform="translate(203, 98)" class="key keypos-11">
<rect rx="6" ry="6" x="-26" y="-26" width="51" height="51" class="key"/>
<text x="0" y="0" class="key tap">
<tspan x="0" dy="-0.6em">mse</tspan><tspan x="0" dy="1.2em">rgt</tspan>
</text>
</g>
<g transform="translate(259, 126)" class="key keypos-12">
<rect rx="6" ry="6" x="-26" y="-26" width="51" height="51" class="key"/>
<text x="0" y="0" class="key tap">
<tspan x="0" dy="-0.6em">mse</tspan><tspan x="0" dy="1.2em">5</tspan>
</text>
</g>
<g transform="translate(518, 126)" class="key keypos-13">
<rect rx="6" ry="6" x="-26" y="-26" width="51" height="51" class="key"/>
<text x="0" y="0" class="key tap">h+v</text>
</g>
<g transform="translate(574, 98)" class="key keypos-14">
<rect rx="6" ry="6" x="-26" y="-26" width="51" height="51" class="key"/>
<text x="0" y="0" class="key tap">lft</text>
<text x="0" y="-24" class="key shifted">c+lft</text>
</g>
<g transform="translate(631, 84)" class="key keypos-15">
<rect rx="6" ry="6" x="-26" y="-26" width="51" height="51" class="key"/>
<text x="0" y="0" class="key tap">up</text>
<text x="0" y="-24" class="key shifted">c+up</text>
</g>
<g transform="translate(691, 101) rotate(3.0)" class="key keypos-16">
<rect rx="6" ry="6" x="-26" y="-26" width="51" height="51" class="key"/>
<text x="0" y="0" class="key tap">dwn</text>
<text x="0" y="-24" class="key shifted">c+dwn</text>
</g>
<g transform="translate(747, 164) rotate(8.0)" class="key keypos-17">
<rect rx="6" ry="6" x="-26" y="-26" width="51" height="51" class="key"/>
<text x="0" y="0" class="key tap">rgt</text>
<text x="0" y="-24" class="key shifted">c+rgt</text>
</g>
<g transform="translate(89, 158) rotate(-3.0)" class="key keypos-18">
<rect rx="6" ry="6" x="-26" y="-26" width="51" height="51" class="key"/>
<text x="0" y="0" class="key tap">c+c</text>
<text x="0" y="-24" class="key shifted">c+z</text>
</g>
<g transform="translate(147, 140)" class="key keypos-19">
<rect rx="6" ry="6" x="-26" y="-26" width="51" height="51" class="key"/>
<text x="0" y="0" class="key tap">
<tspan x="0" dy="-0.6em">mse</tspan><tspan x="0" dy="1.2em">dwn</tspan>
</text>
</g>
<g transform="translate(203, 155)" class="key keypos-20">
<rect rx="6" ry="6" x="-26" y="-26" width="51" height="51" class="key"/>
<text x="0" y="0" class="key tap">c+v</text>
<text x="0" y="-24" class="key shifted">c+y</text>
</g>
<g transform="translate(574, 155)" class="key keypos-21">
<rect rx="6" ry="6" x="-26" y="-26" width="51" height="51" class="key"/>
<text x="0" y="0" class="key tap">hme</text>
</g>
<g transform="translate(631, 140)" class="key keypos-22">
<rect rx="6" ry="6" x="-26" y="-26" width="51" height="51" class="key"/>
<text x="0" y="0" class="key tap">end</text>
</g>
<g transform="translate(688, 158) rotate(3.0)" class="key keypos-23">
<rect rx="6" ry="6" x="-26" y="-26" width="51" height="51" class="key"/>
<text x="0" y="0" class="key tap">
<tspan x="0" dy="-0.6em">pg</tspan><tspan x="0" dy="1.2em">dn</tspan>
</text>
</g>
<g transform="translate(323, 220) rotate(20.0)" class="key held keypos-24">
<rect rx="6" ry="6" x="-39" y="-26" width="78" height="51" class="key held"/>
</g>
<g transform="translate(453, 222) rotate(-20.0)" class="key keypos-25">
<rect rx="6" ry="6" x="-39" y="-26" width="78" height="51" class="key"/>
<text x="0" y="0" class="key tap">
<tspan x="0" dy="-0.6em">prn</tspan><tspan x="0" dy="1.2em">scr</tspan>
</text>
</g>
</g>
</g>
<g transform="translate(30, 1019)" class="layer-four">
<text x="0" y="28" class="label" id="four">four:</text>
<g transform="translate(0, 102)">
<g transform="translate(84, 45) rotate(-3.0)" class="key keypos-0">
<rect rx="6" ry="6" x="-26" y="-26" width="51" height="51" class="key"/>
<text x="0" y="0" class="key tap">1</text>
<text x="0" y="-24" class="key shifted">f1</text>
</g>
<g transform="translate(147, 28)" class="key keypos-1">
<rect rx="6" ry="6" x="-26" y="-26" width="51" height="51" class="key"/>
<text x="0" y="0" class="key tap">2</text>
<text x="0" y="-24" class="key shifted">f2</text>
</g>
<g transform="translate(203, 41)" class="key keypos-2">
<rect rx="6" ry="6" x="-26" y="-26" width="51" height="51" class="key"/>
<text x="0" y="0" class="key tap">3</text>
<text x="0" y="-24" class="key shifted">f3</text>
</g>
<g transform="translate(259, 70)" class="key keypos-3">
<rect rx="6" ry="6" x="-26" y="-26" width="51" height="51" class="key"/>
<text x="0" y="0" class="key tap">4</text>
<text x="0" y="-24" class="key shifted">f4</text>
</g>
<g transform="translate(518, 70)" class="key keypos-4">
<rect rx="6" ry="6" x="-26" y="-26" width="51" height="51" class="key"/>
<text x="0" y="0" class="key tap">ply</text>
</g>
<g transform="translate(574, 41)" class="key keypos-5">
<rect rx="6" ry="6" x="-26" y="-26" width="51" height="51" class="key"/>
<text x="0" y="0" class="key tap">prv</text>
</g>
<g transform="translate(631, 28)" class="key keypos-6">
<rect rx="6" ry="6" x="-26" y="-26" width="51" height="51" class="key"/>
<text x="0" y="0" class="key tap">nxt</text>
</g>
<g transform="translate(694, 45) rotate(3.0)" class="key keypos-7">
<rect rx="6" ry="6" x="-26" y="-26" width="51" height="51" class="key"/>
<text x="0" y="0" class="key tap">f7</text>
</g>
<g transform="translate(31, 164) rotate(-8.0)" class="key held keypos-8">
<rect rx="6" ry="6" x="-26" y="-26" width="51" height="51" class="key held"/>
<text x="0" y="0" class="key held tap">q</text>
</g>
<g transform="translate(87, 101) rotate(-3.0)" class="key held keypos-9">
<rect rx="6" ry="6" x="-26" y="-26" width="51" height="51" class="key held"/>
<text x="0" y="0" class="key held tap">w</text>
</g>
<g transform="translate(147, 84)" class="key keypos-10">
<rect rx="6" ry="6" x="-26" y="-26" width="51" height="51" class="key"/>
<text x="0" y="0" class="key tap">e</text>
</g>
<g transform="translate(203, 98)" class="key held keypos-11">
<rect rx="6" ry="6" x="-26" y="-26" width="51" height="51" class="key held"/>
<text x="0" y="0" class="key held tap">r</text>
</g>
<g transform="translate(259, 126)" class="key keypos-12">
<rect rx="6" ry="6" x="-26" y="-26" width="51" height="51" class="key"/>
<text x="0" y="0" class="key tap">g</text>
<text x="0" y="-24" class="key shifted">b</text>
</g>
<g transform="translate(518, 126)" class="key keypos-13">
<rect rx="6" ry="6" x="-26" y="-26" width="51" height="51" class="key"/>
<text x="0" y="0" class="key tap">mte</text>
</g>
<g transform="translate(574, 98)" class="key keypos-14">
<rect rx="6" ry="6" x="-26" y="-26" width="51" height="51" class="key"/>
<text x="0" y="0" class="key tap">f2</text>
</g>
<g transform="translate(631, 84)" class="key keypos-15">
<rect rx="6" ry="6" x="-26" y="-26" width="51" height="51" class="key"/>
<text x="0" y="0" class="key tap">f3</text>
</g>
<g transform="translate(691, 101) rotate(3.0)" class="key keypos-16">
<rect rx="6" ry="6" x="-26" y="-26" width="51" height="51" class="key"/>
<text x="0" y="0" class="key tap">f5</text>
</g>
<g transform="translate(747, 164) rotate(8.0)" class="key keypos-17">
<rect rx="6" ry="6" x="-26" y="-26" width="51" height="51" class="key"/>
<text x="0" y="0" class="key tap">f6</text>
</g>
<g transform="translate(89, 158) rotate(-3.0)" class="key keypos-18">
<rect rx="6" ry="6" x="-26" y="-26" width="51" height="51" class="key"/>
<text x="0" y="0" class="key tap">x</text>
<text x="0" y="-24" class="key shifted">v</text>
</g>
<g transform="translate(147, 140)" class="key held keypos-19">
<rect rx="6" ry="6" x="-26" y="-26" width="51" height="51" class="key held"/>
<text x="0" y="0" class="key held tap">d</text>
</g>
<g transform="translate(203, 155)" class="key keypos-20">
<rect rx="6" ry="6" x="-26" y="-26" width="51" height="51" class="key"/>
<text x="0" y="0" class="key tap">f</text>
</g>
<g transform="translate(574, 155)" class="key keypos-21">
<rect rx="6" ry="6" x="-26" y="-26" width="51" height="51" class="key"/>
<text x="0" y="0" class="key tap">vol-</text>
</g>
<g transform="translate(631, 140)" class="key keypos-22">
<rect rx="6" ry="6" x="-26" y="-26" width="51" height="51" class="key"/>
<text x="0" y="0" class="key tap">vol+</text>
</g>
<g transform="translate(688, 158) rotate(3.0)" class="key keypos-23">
<rect rx="6" ry="6" x="-26" y="-26" width="51" height="51" class="key"/>
<text x="0" y="0" class="key tap">f8</text>
</g>
<g transform="translate(323, 220) rotate(20.0)" class="key keypos-24">
<rect rx="6" ry="6" x="-39" y="-26" width="78" height="51" class="key"/>
<text x="0" y="0" class="key tap">spc</text>
<text x="0" y="-24" class="key shifted">ctl</text>
</g>
<g transform="translate(453, 222) rotate(-20.0)" class="key keypos-25">
<rect rx="6" ry="6" x="-39" y="-26" width="78" height="51" class="key"/>
</g>
<g class="combo combopos-0">
<path d="M114,-34 h-24 a6.0,6.0 0 0 0 -6.0,6.0 v54" class="combo"/>
<path d="M114,-34 h84 a6.0,6.0 0 0 1 6.0,6.0 v51" class="combo"/>
<rect rx="6" ry="6" x="101" y="-46" width="25" height="25" class="combo"/>
<text x="114" y="-34" class="combo tap">tab</text>
</g>
<g class="combo combopos-1">
<path d="M173,-15 h-84 a6.0,6.0 0 0 0 -6.0,6.0 v35" class="combo"/>
<path d="M173,-15 h-21 a6.0,6.0 0 0 0 -6.0,6.0 v18" class="combo"/>
<path d="M173,-15 h24 a6.0,6.0 0 0 1 6.0,6.0 v32" class="combo"/>
<rect rx="6" ry="6" x="161" y="-27" width="25" height="25" class="combo"/>
<text x="173" y="-15" class="combo tap">esc</text>
</g>
<g class="combo combopos-2">
<path d="M177,249 h-140 a6.0,6.0 0 0 1 -6.0,-6.0 v-61" class="combo"/>
<path d="M177,249 h140 a6.0,6.0 0 0 0 6.0,-6.0 v-4" class="combo"/>
<rect rx="6" ry="6" x="165" y="236" width="25" height="25" class="combo"/>
<text x="177" y="249" class="combo tap">alt</text>
</g>
</g>
</g>
<g transform="translate(30, 1383)" class="layer-six">
<text x="0" y="28" class="label" id="six">six:</text>
<g transform="translate(0, 102)">
<g transform="translate(84, 45) rotate(-3.0)" class="key keypos-0">
<rect rx="6" ry="6" x="-26" y="-26" width="51" height="51" class="key"/>
<text x="0" y="0" class="key tap">q</text>
</g>
<g transform="translate(147, 28)" class="key keypos-1">
<rect rx="6" ry="6" x="-26" y="-26" width="51" height="51" class="key"/>
<text x="0" y="0" class="key tap">f</text>
</g>
<g transform="translate(203, 41)" class="key keypos-2">
<rect rx="6" ry="6" x="-26" y="-26" width="51" height="51" class="key"/>
<text x="0" y="0" class="key tap">e</text>
</g>
<g transform="translate(259, 70)" class="key keypos-3">
<rect rx="6" ry="6" x="-26" y="-26" width="51" height="51" class="key"/>
<text x="0" y="0" class="key tap">r</text>
</g>
<g transform="translate(518, 70)" class="key keypos-4">
<rect rx="6" ry="6" x="-26" y="-26" width="51" height="51" class="key"/>
<text x="0" y="0" class="key tap">ply</text>
</g>
<g transform="translate(574, 41)" class="key keypos-5">
<rect rx="6" ry="6" x="-26" y="-26" width="51" height="51" class="key"/>
<text x="0" y="0" class="key tap">prv</text>
</g>
<g transform="translate(631, 28)" class="key keypos-6">
<rect rx="6" ry="6" x="-26" y="-26" width="51" height="51" class="key"/>
<text x="0" y="0" class="key tap">nxt</text>
</g>
<g transform="translate(694, 45) rotate(3.0)" class="key keypos-7">
<rect rx="6" ry="6" x="-26" y="-26" width="51" height="51" class="key"/>
<text x="0" y="0" class="key tap">f7</text>
</g>
<g transform="translate(31, 164) rotate(-8.0)" class="key keypos-8">
<rect rx="6" ry="6" x="-26" y="-26" width="51" height="51" class="key"/>
<text x="0" y="0" class="key tap">sft</text>
</g>
<g transform="translate(87, 101) rotate(-3.0)" class="key held keypos-9">
<rect rx="6" ry="6" x="-26" y="-26" width="51" height="51" class="key held"/>
<text x="0" y="0" class="key held tap">a</text>
</g>
<g transform="translate(147, 84)" class="key held keypos-10">
<rect rx="6" ry="6" x="-26" y="-26" width="51" height="51" class="key held"/>
<text x="0" y="0" class="key held tap">w</text>
</g>
<g transform="translate(203, 98)" class="key held keypos-11">
<rect rx="6" ry="6" x="-26" y="-26" width="51" height="51" class="key held"/>
<text x="0" y="0" class="key held tap">d</text>
</g>
<g transform="translate(259, 126)" class="key keypos-12">
<rect rx="6" ry="6" x="-26" y="-26" width="51" height="51" class="key"/>
<text x="0" y="0" class="key tap">g</text>
<text x="0" y="-24" class="key shifted">b</text>
</g>
<g transform="translate(518, 126)" class="key keypos-13">
<rect rx="6" ry="6" x="-26" y="-26" width="51" height="51" class="key"/>
<text x="0" y="0" class="key tap">mte</text>
</g>
<g transform="translate(574, 98)" class="key keypos-14">
<rect rx="6" ry="6" x="-26" y="-26" width="51" height="51" class="key"/>
<text x="0" y="0" class="key tap">f2</text>
</g>
<g transform="translate(631, 84)" class="key keypos-15">
<rect rx="6" ry="6" x="-26" y="-26" width="51" height="51" class="key"/>
<text x="0" y="0" class="key tap">f3</text>
</g>
<g transform="translate(691, 101) rotate(3.0)" class="key keypos-16">
<rect rx="6" ry="6" x="-26" y="-26" width="51" height="51" class="key"/>
<text x="0" y="0" class="key tap">f5</text>
</g>
<g transform="translate(747, 164) rotate(8.0)" class="key keypos-17">
<rect rx="6" ry="6" x="-26" y="-26" width="51" height="51" class="key"/>
<text x="0" y="0" class="key tap">f6</text>
</g>
<g transform="translate(89, 158) rotate(-3.0)" class="key keypos-18">
<rect rx="6" ry="6" x="-26" y="-26" width="51" height="51" class="key"/>
<text x="0" y="0" class="key tap">x</text>
<text x="0" y="-24" class="key shifted">z</text>
</g>
<g transform="translate(147, 140)" class="key keypos-19">
<rect rx="6" ry="6" x="-26" y="-26" width="51" height="51" class="key"/>
<text x="0" y="0" class="key tap">s</text>
</g>
<g transform="translate(203, 155)" class="key keypos-20">
<rect rx="6" ry="6" x="-26" y="-26" width="51" height="51" class="key"/>
<text x="0" y="0" class="key tap">c</text>
<text x="0" y="-24" class="key shifted">v</text>
</g>
<g transform="translate(574, 155)" class="key keypos-21">
<rect rx="6" ry="6" x="-26" y="-26" width="51" height="51" class="key"/>
<text x="0" y="0" class="key tap">vol-</text>
</g>
<g transform="translate(631, 140)" class="key keypos-22">
<rect rx="6" ry="6" x="-26" y="-26" width="51" height="51" class="key"/>
<text x="0" y="0" class="key tap">vol+</text>
</g>
<g transform="translate(688, 158) rotate(3.0)" class="key keypos-23">
<rect rx="6" ry="6" x="-26" y="-26" width="51" height="51" class="key"/>
<text x="0" y="0" class="key tap">f8</text>
</g>
<g transform="translate(323, 220) rotate(20.0)" class="key keypos-24">
<rect rx="6" ry="6" x="-39" y="-26" width="78" height="51" class="key"/>
<text x="0" y="0" class="key tap">spc</text>
</g>
<g transform="translate(453, 222) rotate(-20.0)" class="key keypos-25">
<rect rx="6" ry="6" x="-39" y="-26" width="78" height="51" class="key"/>
</g>
<g class="combo combopos-0">
<path d="M114,-34 h-24 a6.0,6.0 0 0 0 -6.0,6.0 v54" class="combo"/>
<path d="M114,-34 h84 a6.0,6.0 0 0 1 6.0,6.0 v51" class="combo"/>
<rect rx="6" ry="6" x="101" y="-46" width="25" height="25" class="combo"/>
<text x="114" y="-34" class="combo tap">tab</text>
</g>
<g class="combo combopos-1">
<path d="M173,-15 h-84 a6.0,6.0 0 0 0 -6.0,6.0 v35" class="combo"/>
<path d="M173,-15 h-21 a6.0,6.0 0 0 0 -6.0,6.0 v18" class="combo"/>
<path d="M173,-15 h24 a6.0,6.0 0 0 1 6.0,6.0 v32" class="combo"/>
<rect rx="6" ry="6" x="161" y="-27" width="25" height="25" class="combo"/>
<text x="173" y="-15" class="combo tap">esc</text>
</g>
<g class="combo combopos-2">
<path d="M16,92 v-45 a6.0,6.0 0 0 1 6.0,-6.0 h163" class="combo"/>
<path d="M16,92 v66 a6.0,6.0 0 0 0 6.0,6.0 h-10" class="combo"/>
<rect rx="6" ry="6" x="4" y="79" width="25" height="25" class="combo"/>
<text x="16" y="92" class="combo tap">1</text>
</g>
<g class="combo combopos-3">
<path d="M3,62 v-28 a6.0,6.0 0 0 1 6.0,-6.0 h120" class="combo"/>
<path d="M3,62 v96 a6.0,6.0 0 0 0 6.0,6.0 h4" class="combo"/>
<rect rx="6" ry="6" x="-10" y="49" width="25" height="25" class="combo"/>
<text x="3" y="62" class="combo tap">2</text>
</g>
<g class="combo combopos-4">
<path d="M30,86 v-36 a6.0,6.0 0 0 1 6.0,-6.0 h29" class="combo"/>
<path d="M30,86 v72 a6.0,6.0 0 0 0 6.0,6.0 h-23" class="combo"/>
<rect rx="6" ry="6" x="18" y="74" width="25" height="25" class="combo"/>
<text x="30" y="86" class="combo tap">3</text>
</g>
<g class="combo combopos-5">
<path d="M177,249 h-140 a6.0,6.0 0 0 1 -6.0,-6.0 v-61" class="combo"/>
<path d="M177,249 h140 a6.0,6.0 0 0 0 6.0,-6.0 v-4" class="combo"/>
<rect rx="6" ry="6" x="165" y="236" width="25" height="25" class="combo"/>
<text x="177" y="249" class="combo tap">k</text>
</g>
<g class="combo combopos-6">
<rect rx="6" ry="6" x="162" y="135" width="25" height="25" class="combo"/>
<text x="175" y="147" class="combo tap">b</text>
</g>
</g>
</g>
</svg>
